<?xml version="1.0" encoding="UTF-8" standalone="no"?>
<svg width="38px" height="38px" viewBox="0 0 38 38" version="1.1" xmlns="http://www.w3.org/2000/svg" xmlns:xlink="http://www.w3.org/1999/xlink" xmlns:sketch="http://www.bohemiancoding.com/sketch/ns">
    <!-- Generator: Sketch 3.5.1 (25234) - http://www.bohemiancoding.com/sketch -->
    <title>insta</title>
    <desc>Created with Sketch.</desc>
    <defs></defs>
    <g id="Proposed-UI" stroke="none" stroke-width="1" fill="none" fill-rule="evenodd" sketch:type="MSPage">
        <g id="HD-Desktop-Homepage" sketch:type="MSArtboardGroup" transform="translate(-763.000000, -804.000000)" fill="#F04A24">
            <path d="M795.5,804 L767.375,804 C765,804 763,806 763,808.375 L763,808.375 L763,837.125 C763,839.5 765,841.5 767.375,841.5 L796.125,841.5 C798.5,841.375 800.5,839.5 800.5,837.125 L800.5,808.375 C800.5,806 797.875,804.125 795.5,804 L795.5,804 Z M781.75,815.875 C785.5,815.875 788.625,819 788.625,822.75 C788.625,826.5 785.5,829.625 781.75,829.625 C778,829.625 774.875,826.5 774.875,822.75 C774.875,819 778,815.875 781.75,815.875 L781.75,815.875 Z M795.5,834 C795.5,835.375 794.375,836.5 793,836.5 L781.75,836.5 L770.5,836.5 C769.125,836.5 768,835.375 768,834 L768,819.625 L771,819.625 C770.625,820.625 770.5,821.625 770.5,822.75 C770.5,829 775.5,834 781.75,834 C788,834 793,829 793,822.75 C793,821.625 792.875,820.625 792.5,819.625 L795.5,819.625 L795.5,834 L795.5,834 Z M795.5,810.25 L795.5,814 L795.5,814 C795.5,814.625 795,815.25 794.25,815.25 L794.25,815.25 L790.5,815.25 C789.875,815.25 789.25,814.75 789.25,814 L789.25,814 L789.25,810.25 L789.25,810.25 L789.25,810.25 C789.25,809.5 789.75,809 790.5,809 L794.25,809 L794.25,809 C795,809 795.5,809.625 795.5,810.25 L795.5,810.25 L795.5,810.25 L795.5,810.25 Z" id="insta" sketch:type="MSShapeGroup"></path>
        </g>
    </g>
</svg>